HIERARCHY
ROOT Hips
{
    OFFSET 0.000000 0.000000 0.000000
    CHANNELS 6 Xposition Yposition Zposition Zrotation Yrotation Xrotation
    JOINT Chest
    {
        OFFSET 0.000000 1.634758 -0.000000
        CHANNELS 3 Zrotation Yrotation Xrotation
        JOINT Chest2
        {
            OFFSET 0.000000 2.197341 0.000000
            CHANNELS 3 Zrotation Yrotation Xrotation
            JOINT Neck
            {
                OFFSET 0.000000 0.961544 0.000000
                CHANNELS 3 Zrotation Yrotation Xrotation
                JOINT Head
                {
                    OFFSET 0.000000 0.632542 -0.032565
                    CHANNELS 3 Zrotation Yrotation Xrotation
                    End Site
                    {
                        OFFSET -0.000001 0.439502 2.922845
                    }
                }
            }
            JOINT LeftCollar
            {
                OFFSET 0.167536 0.778237 -0.168280
                CHANNELS 3 Zrotation Yrotation Xrotation
                JOINT LeftShoulder
                {
                    OFFSET 0.831514 -0.002900 0.006458
                    CHANNELS 3 Zrotation Yrotation Xrotation
                    JOINT LeftElbow
                    {
                        OFFSET 2.272872 -0.026639 0.059314
                        CHANNELS 3 Zrotation Yrotation Xrotation
                        JOINT LeftWrist
                        {
                            OFFSET 2.081982 -0.024402 0.054333
                            CHANNELS 3 Zrotation Yrotation Xrotation
                            JOINT LeftHandThumb1
                            {
                                OFFSET 0.218903 -0.128645 0.283837
                                CHANNELS 3 Zrotation Yrotation Xrotation
                                JOINT LeftHandThumb2
                                {
                                    OFFSET 0.137157 -0.025101 0.077902
                                    CHANNELS 3 Zrotation Yrotation Xrotation
                                    JOINT LeftHandThumb3
                                    {
                                        OFFSET 0.165053 -0.078363 0.012489
                                        CHANNELS 3 Zrotation Yrotation Xrotation
                                        End Site
                                        {
                                            OFFSET 0.180925 -0.106478 -0.166629
                                        }
                                    }
                                }
                            }
                            JOINT LeftHandFore1
                            {
                                OFFSET 0.767340 -0.016076 0.196678
                                CHANNELS 3 Zrotation Yrotation Xrotation
                                JOINT LeftHandFore2
                                {
                                    OFFSET 0.065761 -0.205801 0.017803
                                    CHANNELS 3 Zrotation Yrotation Xrotation
                                    JOINT LeftHandFore3
                                    {
                                        OFFSET -0.125377 0.032174 -0.002909
                                        CHANNELS 3 Zrotation Yrotation Xrotation
                                        End Site
                                        {
                                            OFFSET -0.037405 0.189221 -0.012767
                                        }
                                    }
                                }
                            }
                            JOINT LeftHandMiddle1
                            {
                                OFFSET 0.709887 -0.008320 0.018526
                                CHANNELS 3 Zrotation Yrotation Xrotation
                                JOINT LeftHandMiddle2
                                {
                                    OFFSET 0.046973 -0.240144 0.013723
                                    CHANNELS 3 Zrotation Yrotation Xrotation
                                    JOINT LeftHandMiddle3
                                    {
                                        OFFSET -0.141190 0.038024 -0.001699
                                        CHANNELS 3 Zrotation Yrotation Xrotation
                                        End Site
                                        {
                                            OFFSET -0.013647 0.234722 -0.018700
                                        }
                                    }
                                }
                            }
                            JOINT LeftHandRing1
                            {
                                OFFSET 0.743817 -0.005823 -0.153668
                                CHANNELS 3 Zrotation Yrotation Xrotation
                                JOINT LeftHandRing2
                                {
                                    OFFSET 0.072905 -0.344203 -0.030695
                                    CHANNELS 3 Zrotation Yrotation Xrotation
                                    JOINT LeftHandRing3
                                    {
                                        OFFSET -0.134883 0.018831 -0.007575
                                        CHANNELS 3 Zrotation Yrotation Xrotation
                                        End Site
                                        {
                                            OFFSET -0.001227 0.120076 0.000038
                                        }
                                    }
                                }
                            }
                            JOINT LeftHandLittle1
                            {
                                OFFSET 0.689408 -0.053302 -0.308304
                                CHANNELS 3 Zrotation Yrotation Xrotation
                                JOINT LeftHandLittle2
                                {
                                    OFFSET 0.040377 -0.185855 -0.043381
                                    CHANNELS 3 Zrotation Yrotation Xrotation
                                    JOINT LeftHandLittle3
                                    {
                                        OFFSET -0.102748 0.054596 -0.030957
                                        CHANNELS 3 Zrotation Yrotation Xrotation
                                        End Site
                                        {
                                            OFFSET 0.022173 0.188974 0.009252
                                        }
                                    }
                                }
                            }
                        }
                    }
                }
            }
            JOINT RightCollar
            {
                OFFSET -0.167536 0.778237 -0.168280
                CHANNELS 3 Zrotation Yrotation Xrotation
                JOINT RightShoulder
                {
                    OFFSET -0.831514 -0.002900 0.006457
                    CHANNELS 3 Zrotation Yrotation Xrotation
                    JOINT RightElbow
                    {
                        OFFSET -2.272872 -0.026639 0.059313
                        CHANNELS 3 Zrotation Yrotation Xrotation
                        JOINT RightWrist
                        {
                            OFFSET -2.081982 -0.024402 0.054331
                            CHANNELS 3 Zrotation Yrotation Xrotation
                            JOINT RightHandThumb1
                            {
                                OFFSET -0.218911 -0.128571 0.283837
                                CHANNELS 3 Zrotation Yrotation Xrotation
                                JOINT RightHandThumb2
                                {
                                    OFFSET -0.137157 -0.025101 0.077902
                                    CHANNELS 3 Zrotation Yrotation Xrotation
                                    JOINT RightHandThumb3
                                    {
                                        OFFSET -0.161206 -0.085213 0.017055
                                        CHANNELS 3 Zrotation Yrotation Xrotation
                                        End Site
                                        {
                                            OFFSET -0.113122 -0.227179 -0.086195
                                        }
                                    }
                                }
                            }
                            JOINT RightHandFore1
                            {
                                OFFSET -0.767344 -0.015991 0.196679
                                CHANNELS 3 Zrotation Yrotation Xrotation
                                JOINT RightHandFore2
                                {
                                    OFFSET -0.065809 -0.205789 0.017801
                                    CHANNELS 3 Zrotation Yrotation Xrotation
                                    JOINT RightHandFore3
                                    {
                                        OFFSET 0.125134 0.031585 -0.010303
                                        CHANNELS 3 Zrotation Yrotation Xrotation
                                        End Site
                                        {
                                            OFFSET 0.037233 0.188792 -0.018387
                                        }
                                    }
                                }
                            }
                            JOINT RightHandMiddle1
                            {
                                OFFSET -0.709887 -0.008302 0.018525
                                CHANNELS 3 Zrotation Yrotation Xrotation
                                JOINT RightHandMiddle2
                                {
                                    OFFSET -0.046948 -0.240145 0.013725
                                    CHANNELS 3 Zrotation Yrotation Xrotation
                                    JOINT RightHandMiddle3
                                    {
                                        OFFSET 0.141018 0.037658 -0.008961
                                        CHANNELS 3 Zrotation Yrotation Xrotation
                                        End Site
                                        {
                                            OFFSET 0.013935 0.235355 -0.006641
                                        }
                                    }
                                }
                            }
                            JOINT RightHandRing1
                            {
                                OFFSET -0.743819 -0.005785 -0.153669
                                CHANNELS 3 Zrotation Yrotation Xrotation
                                JOINT RightHandRing2
                                {
                                    OFFSET -0.072929 -0.344198 -0.030690
                                    CHANNELS 3 Zrotation Yrotation Xrotation
                                    JOINT RightHandRing3
                                    {
                                        OFFSET 0.134528 0.019293 -0.011618
                                        CHANNELS 3 Zrotation Yrotation Xrotation
                                        End Site
                                        {
                                            OFFSET 0.003369 0.117385 0.025092
                                        }
                                    }
                                }
                            }
                            JOINT RightHandLittle1
                            {
                                OFFSET -0.689403 -0.053298 -0.308303
                                CHANNELS 3 Zrotation Yrotation Xrotation
                                JOINT RightHandLittle2
                                {
                                    OFFSET -0.040383 -0.185856 -0.043381
                                    CHANNELS 3 Zrotation Yrotation Xrotation
                                    JOINT RightHandLittle3
                                    {
                                        OFFSET 0.111000 0.039963 0.024031
                                        CHANNELS 3 Zrotation Yrotation Xrotation
                                        End Site
                                        {
                                            OFFSET -0.010031 0.167386 0.090388
                                        }
                                    }
                                }
                            }
                        }
                    }
                }
            }
        }
    }
    JOINT LeftHip
    {
        OFFSET 0.685143 0.673822 -0.044491
        CHANNELS 3 Zrotation Yrotation Xrotation
        JOINT LeftKnee
        {
            OFFSET 0.085364 -3.750208 0.017676
            CHANNELS 3 Zrotation Yrotation Xrotation
            JOINT LeftAnkle
            {
                OFFSET 0.094583 -4.155206 0.019585
                CHANNELS 3 Zrotation Yrotation Xrotation
                JOINT LeftToe
                {
                    OFFSET -0.000000 -0.395925 0.621478
                    CHANNELS 3 Zrotation Yrotation Xrotation
                    End Site
                    {
                        OFFSET -0.000000 -0.077878 0.321152
                    }
                }
            }
        }
    }
    JOINT RightHip
    {
        OFFSET -0.685143 0.673822 -0.044492
        CHANNELS 3 Zrotation Yrotation Xrotation
        JOINT RightKnee
        {
            OFFSET -0.085364 -3.750208 0.017677
            CHANNELS 3 Zrotation Yrotation Xrotation
            JOINT RightAnkle
            {
                OFFSET -0.094583 -4.155206 0.019585
                CHANNELS 3 Zrotation Yrotation Xrotation
                JOINT RightToe
                {
                    OFFSET -0.000000 -0.395925 0.621478
                    CHANNELS 3 Zrotation Yrotation Xrotation
                    End Site
                    {
                        OFFSET -0.000000 -0.077878 0.321152
                    }
                }
            }
        }
    }
}
MOTION
Frames: 4
Frame Time: 0.033333
1.705227 8.815349 2.017707 -22.682335 66.660339 -52.080021 12.470762 3.766156 11.713148 0.037291 -0.585732 -3.645398 4.625185 20.233364 3.485012 -2.417930 39.333408 7.772313 -12.507501 -4.953828 -0.147030 -52.990707 -4.609022 6.360168 0.114479 -31.581299 -0.412131 13.162712 2.408342 -14.088181 -0.000001 -0.000001 -0.000002 -0.000003 -0.000001 -0.000002 -0.000003 0.000002 -0.000001 -0.000003 -0.000000 -0.000001 -0.000003 -0.000003 0.000001 -0.000001 0.000002 0.000000 -0.000003 0.000001 0.000003 0.000000 -0.000001 -0.000002 0.000003 -0.000003 0.000001 0.000000 -0.000000 0.000002 0.000001 0.000003 -0.000003 -0.000001 -0.000001 -0.000001 -0.000001 -0.000000 -0.000002 -0.000004 -0.000005 -0.000001 0.000004 0.000001 0.000002 12.501364 6.274359 0.107714 52.896179 5.726584 6.505736 -0.105289 30.452101 -0.394167 -13.087296 -2.561274 -14.461051 0.000005 0.000011 0.000001 0.000003 -0.000003 -0.000001 -0.000002 0.000001 0.000003 0.000003 0.000005 -0.000000 -0.000003 0.000002 -0.000002 0.000002 -0.000000 0.000003 0.000005 0.000001 -0.000003 -0.000002 0.000001 -0.000000 -0.000007 -0.000000 -0.000000 -0.000002 0.000000 -0.000001 0.000000 0.000003 0.000000 0.000003 0.000001 0.000001 0.000005 0.000003 -0.000003 0.000000 -0.000001 0.000000 0.000003 0.000001 0.000000 49.286171 28.566154 54.305576 0.004349 0.106363 4.677780 9.279995 44.404892 16.252808 0.000001 -0.000003 0.000003 24.339787 -7.763472 34.137516 -0.005406 -0.118661 5.220160 31.347303 16.932951 58.109230 0.588492 2.614117 -0.939137
1.705240 8.815343 2.017708 -22.682222 66.660248 -52.079906 12.470834 3.766212 11.712971 0.037352 -0.585741 -3.645593 4.625228 20.233374 3.485125 -2.417934 39.333405 7.772498 -12.507522 -4.953729 -0.147023 -52.990776 -4.608456 6.360261 0.114481 -31.582020 -0.412142 13.162522 2.408334 -14.088185 -0.000002 0.000001 0.000003 -0.000001 -0.000001 -0.000002 -0.000005 -0.000000 -0.000003 0.000015 0.000009 -0.000004 -0.000003 -0.000003 0.000000 0.000003 -0.000000 0.000004 0.000001 0.000003 0.000003 0.000000 -0.000000 -0.000001 -0.000003 -0.000000 -0.000003 -0.000001 -0.000004 -0.000003 -0.000001 0.000003 -0.000001 0.000001 -0.000003 0.000001 0.000003 -0.000000 0.000004 0.000001 0.000002 -0.000001 0.000004 0.000003 0.000000 12.501360 6.274295 0.107725 52.896027 5.725882 6.505917 -0.105308 30.453194 -0.394184 -13.087138 -2.561295 -14.461047 0.000012 0.000009 0.000010 -0.000002 -0.000000 -0.000003 0.000002 0.000002 -0.000001 -0.000009 0.000000 0.000016 0.000003 0.000001 0.000001 -0.000002 0.000001 0.000003 0.000002 0.000003 0.000017 -0.000003 -0.000000 0.000003 -0.000003 -0.000000 0.000000 0.000005 -0.000001 0.000014 0.000000 0.000001 0.000002 -0.000002 -0.000001 -0.000002 0.000009 -0.000000 0.000020 -0.000002 0.000000 -0.000004 0.000003 0.000003 0.000002 49.286251 28.566086 54.306061 0.004345 0.106346 4.677178 9.279997 44.404751 16.253038 -0.000001 0.000003 -0.000007 24.339935 -7.763465 34.137806 -0.005408 -0.118653 5.219888 31.356033 17.088097 57.995819 0.574910 2.551424 -0.927974
1.705281 8.815324 2.017708 -22.682234 66.660255 -52.079914 12.470969 3.766211 11.712447 0.037480 -0.585749 -3.646122 4.625326 20.233355 3.485418 -2.417924 39.333313 7.773019 -12.507581 -4.953502 -0.147028 -52.990967 -4.606736 6.360489 0.114508 -31.584339 -0.412181 13.161953 2.408315 -14.088193 -0.000003 0.000008 -0.000011 0.000001 -0.000001 0.000003 -0.000006 0.000005 -0.000002 0.000003 0.000007 -0.000008 -0.000002 0.000001 -0.000001 -0.000003 -0.000002 0.000001 -0.000002 0.000006 -0.000003 0.000002 -0.000000 0.000003 -0.000001 -0.000003 -0.000001 0.000000 0.000004 -0.000003 -0.000001 -0.000005 -0.000003 0.000000 0.000001 -0.000003 0.000012 0.000009 -0.000003 -0.000003 0.000003 0.000003 0.000003 -0.000002 0.000001 12.501299 6.274096 0.107724 52.895683 5.723840 6.506331 -0.105327 30.456165 -0.394231 -13.086658 -2.561354 -14.461042 0.000012 0.000009 0.000008 -0.000002 -0.000004 0.000002 0.000002 0.000001 0.000001 -0.000005 -0.000000 0.000010 0.000000 -0.000001 -0.000004 -0.000005 -0.000001 0.000004 0.000000 -0.000005 0.000016 -0.000010 -0.000002 -0.000002 -0.000002 -0.000001 0.000003 0.000000 -0.000003 0.000005 -0.000003 -0.000000 0.000003 0.000002 -0.000000 0.000000 -0.000005 -0.000005 0.000014 0.000000 -0.000005 -0.000002 -0.000002 0.000001 0.000000 49.286560 28.565849 54.306423 0.004346 0.106346 4.677326 9.279088 44.404106 16.252367 0.000000 -0.000000 -0.000005 24.340460 -7.763453 34.138844 -0.005404 -0.118627 5.218668 31.377661 17.500351 57.700066 0.538768 2.384583 -0.895350
1.705349 8.815293 2.017708 -22.682222 66.660248 -52.079906 12.471188 3.766222 11.711580 0.037705 -0.585761 -3.647009 4.625487 20.233328 3.485902 -2.417905 39.333172 7.773896 -12.507646 -4.953128 -0.147040 -52.991352 -4.603975 6.360799 0.114531 -31.587942 -0.412241 13.161006 2.408274 -14.088217 -0.000001 0.000006 0.000002 -0.000005 0.000002 -0.000004 -0.000002 0.000000 -0.000001 0.000004 0.000002 -0.000013 0.000003 -0.000001 0.000003 -0.000002 0.000001 -0.000001 0.000004 -0.000002 -0.000005 0.000002 -0.000001 0.000001 -0.000002 -0.000006 -0.000001 0.000008 -0.000001 -0.000005 -0.000003 0.000003 -0.000002 0.000003 -0.000002 0.000003 -0.000001 0.000004 -0.000003 -0.000003 -0.000000 0.000002 0.000003 0.000006 0.000000 12.501204 6.273761 0.107730 52.895054 5.720522 6.507161 -0.105372 30.460985 -0.394307 -13.085855 -2.561460 -14.461027 0.000003 0.000005 0.000000 0.000002 0.000001 -0.000002 0.000000 0.000001 0.000004 -0.000017 0.000007 0.000003 0.000000 0.000001 0.000000 0.000002 -0.000001 0.000001 -0.000009 0.000006 0.000009 -0.000005 -0.000000 0.000001 -0.000007 -0.000006 -0.000000 -0.000005 0.000006 -0.000000 -0.000003 -0.000002 0.000003 0.000000 -0.000000 -0.000002 -0.000020 0.000000 0.000012 -0.000003 0.000003 -0.000003 -0.000003 -0.000007 0.000000 49.287029 28.565439 54.307369 0.004345 0.106338 4.676873 9.277914 44.403072 16.251730 0.000001 0.000001 -0.000002 24.341320 -7.763415 34.140274 -0.005401 -0.118592 5.217174 31.404425 18.090786 57.288235 0.486822 2.145123 -0.841274
